# xmcd
# Track frame offsets:
# 150
# 11110
# 30872
# 44172
# 55982
# 68157
# 81402
# 94525
# 107745
# 123932
# 139787
# 153220
#
# Disc length: 2235 seconds
# Revision: 1
# Processed by: cddbd v1.4PL0 Copyright (c) Steve Scherf et al.
# Submitted via: VisiTrax 2.9.5.180 - For more info visit www.synapsa.com
#
DISCID=9908b90c
DTITLE=Various Artist - Best of Branson USA Vol 1
DYEAR=1991
DGENRE=Country
TTITLE0=Stevens Ray - Help Me Make It Through The Night
TTITLE1=Bandy Moe - Americana
TTITLE2=Tillis Mel - New Patches
TTITLE3=Jones George - Least Of All You
TTITLE4=Watson Gene - Got No Reason Now For Goin' Home
TTITLE5=Newton Wayne - You Don't Know What You've Got
TTITLE6=Osmond Marie - There's No Stopping Your Heart
TTITLE7=Sawyer Brown - The Race Is On
TTITLE8=Sheppard TG - One AM
TTITLE9=McDowell Ronnie - Unchained Melody
TTITLE10=Exile - Stay With Me
TTITLE11=Stafford Jim - Cow Patti
EXTD=
EXTT0=
EXTT1=
EXTT2=
EXTT3=
EXTT4=
EXTT5=
EXTT6=
EXTT7=
EXTT8=
EXTT9=
EXTT10=
EXTT11=
PLAYORDER=
